<svg width="26" height="23" viewBox="0 0 26 23" fill="none" xmlns="http://www.w3.org/2000/svg">
<path fill-rule="evenodd" clip-rule="evenodd" d="M20.0344 22C22.3969 22 24.3095 20.0861 24.3095 17.7249V14.323C22.7472 14.323 21.4872 13.063 21.4872 11.5019C21.4872 9.93952 22.7472 8.68081 24.3095 8.68081L24.307 5.27509C24.307 2.9139 22.3944 1 20.0332 1H5.27635C2.91516 1 1.00126 2.9139 1.00126 5.27509L1 8.79042C2.56111 8.79042 3.82108 9.93952 3.82108 11.5019C3.82108 13.063 2.56111 14.323 1 14.323V17.7249C1 20.0861 2.91264 22 5.27383 22H20.0344Z" stroke="#E1B000" stroke-width="2" stroke-linecap="round" stroke-linejoin="round"/>
</svg>
