<svg width="25" height="21" viewBox="0 0 25 21" fill="none" xmlns="http://www.w3.org/2000/svg">
<path fill-rule="evenodd" clip-rule="evenodd" d="M20.0721 19.8C22.1307 19.8 23.7981 18.0875 23.7981 15.9732V12.927C22.4359 12.927 21.3388 11.8003 21.3388 10.4012C21.3388 9.00216 22.4359 7.87421 23.7981 7.87421L23.7969 4.82681C23.7969 2.7125 22.1283 1 20.0709 1H4.92904C2.87163 1 1.20308 2.7125 1.20308 4.82681L1.2019 7.97345C2.56408 7.97345 3.66113 9.00216 3.66113 10.4012C3.66113 11.8003 2.56408 12.927 1.2019 12.927V15.9732C1.2019 18.0875 2.86928 19.8 4.92787 19.8H20.0721Z" stroke="#029244" stroke-width="2" stroke-linecap="round" stroke-linejoin="round"/>
</svg>
