<svg width="18" height="18" viewBox="0 0 18 18" fill="none" xmlns="http://www.w3.org/2000/svg">
<path fill-rule="evenodd" clip-rule="evenodd" d="M9 1C7.19008 1 7.01897 4.15246 5.94143 5.26629C4.8639 6.38011 1.51395 5.10659 1.04852 7.08358C0.584066 9.06158 3.59765 9.7327 3.96921 11.4297C4.34273 13.1267 2.50153 15.511 4.07481 16.6976C5.64809 17.8832 7.34164 15.1997 9 15.1997C10.6583 15.1997 12.3519 17.8832 13.9252 16.6976C15.4985 15.511 13.6582 13.1267 14.0308 11.4297C14.4033 9.7327 17.4159 9.06158 16.9515 7.08358C16.487 5.10659 13.1361 6.38011 12.0595 5.26629C10.982 4.15246 10.8099 1 9 1Z" stroke="#FFCC00" stroke-width="1.5" stroke-linecap="round" stroke-linejoin="round"/>
</svg>
