<svg width="21" height="21" viewBox="0 0 21 21" fill="none" xmlns="http://www.w3.org/2000/svg">
<path fill-rule="evenodd" clip-rule="evenodd" d="M8.24204 13.6573C4.33599 13.6573 1 14.2477 1 16.6133C1 18.9789 4.31567 19.5906 8.24204 19.5906C12.1491 19.5906 15.4841 18.9992 15.4841 16.6346C15.4841 14.2701 12.1694 13.6573 8.24204 13.6573Z" stroke="#029244" stroke-width="2" stroke-linecap="round" stroke-linejoin="round"/>
<path opacity="0.4" fill-rule="evenodd" clip-rule="evenodd" d="M8.24209 10.2835C10.8058 10.2835 12.8838 8.20545 12.8838 5.64173C12.8838 3.07801 10.8058 1 8.24209 1C5.67939 1 3.60135 3.07801 3.60135 5.64173C3.59223 8.19631 5.655 10.2743 8.21059 10.2835H8.24209Z" stroke="#029244" stroke-width="2" stroke-linecap="round" stroke-linejoin="round"/>
<path d="M17.7197 7.01474V11.0895" stroke="#029244" stroke-width="2" stroke-linecap="round" stroke-linejoin="round"/>
<path d="M19.7986 9.052H15.6426" stroke="#029244" stroke-width="2" stroke-linecap="round" stroke-linejoin="round"/>
</svg>
